<?xml version="1.0"?>
<svg xmlns="http://www.w3.org/2000/svg" viewBox="0 0 50 50">
    <path d="M 10.300781 12 C 7.8897812 12 6 13.933391 6 16.400391 C 6 17.314391 6.261625 17.876641 6.515625 18.306641 L 6.5957031 18.466797 L 6.6992188 18.599609 C 6.7502188 18.667609 6.852375 18.811 6.984375 19 L 2 19 L 0 19 L 0 21 L 0 23 L 0 25 L 0 26.123047 L 0.50390625 27.632812 L 3.5039062 36.632812 L 3.9570312 38 L 5.4003906 38 L 7.0996094 38 L 8.5253906 38 L 8.9902344 36.652344 L 9 36.625 L 9.0097656 36.652344 L 9.4746094 38 L 10.900391 38 L 12.599609 38 L 12.853516 38 L 15.599609 38 L 18 38 L 19.419922 38 L 19.888672 36.660156 L 20.119141 36 L 21.080078 36 L 21.3125 36.660156 L 21.78125 38 L 23.199219 38 L 25.699219 38 L 26 38 L 28 38 L 31 38 L 33 38 L 33 37.451172 C 33.384 37.710172 33.994781 38 34.800781 38 L 43.099609 38 C 45.607609 38 47.5 36.107609 47.5 33.599609 C 47.5 32.685609 47.238375 32.123359 46.984375 31.693359 L 46.890625 31.503906 L 46.761719 31.349609 L 46.480469 31 L 47 31 L 49 31 L 49 29 L 49 27 L 49 25 L 49 23 L 49 21 L 49 19 L 47 19 L 45.267578 19 C 45.609578 18.337 45.800781 17.587781 45.800781 16.800781 C 45.800781 14.153781 43.647 12 41 12 L 35 12 L 33 12 L 33 14 L 33 15.117188 L 32.390625 13.349609 L 31.925781 12 L 30.5 12 L 26.300781 12 L 26 12 L 24 12 L 23.800781 12 L 10.300781 12 z M 10.300781 14 L 23.800781 14 L 24 14 L 24 16 L 20 16 L 20 23 L 17 23 L 17 16 L 11.599609 16 C 11.199609 16 10.900391 16.299219 10.900391 16.699219 C 10.900391 16.799219 11 16.9 11 17 L 12.900391 19.599609 C 13.000391 19.799609 13.199219 19.999609 13.199219 20.599609 C 13.199219 21.999609 12.100781 23 10.800781 23 L 2 23 L 2 21 L 9.5996094 21 C 9.9996094 21 10.299219 20.700781 10.199219 20.300781 C 10.199219 20.200781 10.099609 20.1 10.099609 20 C 10.099609 20 8.6007812 17.800391 8.3007812 17.400391 C 8.2007813 17.200391 8 17.000391 8 16.400391 C 8 15.000391 9.0007812 14 10.300781 14 z M 26.300781 14 L 30.5 14 L 33.599609 23 L 31.099609 23 L 30.400391 21 L 26.599609 21 L 25.900391 23 L 23.400391 23 L 26.300781 14 z M 35 14 L 41 14 C 42.5 14 43.800781 15.200781 43.800781 16.800781 C 43.800781 18.100781 42.899219 19.2 41.699219 19.5 C 41.699219 19.5 42.300781 19.999609 42.800781 20.599609 C 43.000781 20.799609 43.199609 21 43.599609 21 L 47 21 L 47 23 L 41.800781 23 C 41.400781 23 41.1 22.799219 41 22.699219 C 40.223 21.999219 38.659953 20.514672 38.001953 19.888672 C 38.001953 20.874672 38 23 38 23 L 35 23 L 35 14 z M 28.400391 15.400391 L 27.199219 19 L 29.599609 19 L 28.400391 15.400391 z M 38 16 L 38 18 L 40.300781 18 C 40.900781 18 41.400391 17.6 41.400391 17 C 41.400391 16.4 40.900781 16 40.300781 16 L 38 16 z M 14.207031 18 L 15 18 L 15 19.351562 C 14.909 19.094562 14.796547 18.881359 14.685547 18.693359 L 14.609375 18.544922 L 14.515625 18.419922 L 14.207031 18 z M 22 18 L 22.910156 18 L 22 20.824219 L 22 18 z M 15 21.939453 L 15 23 L 15 25 L 13 25 L 11.841797 25 L 10.800781 25 C 12.798781 25 14.446 23.731453 15 21.939453 z M 28.019531 23 L 28.980469 23 L 29.212891 23.660156 L 29.681641 25 L 28 25 L 27.318359 25 L 27.787109 23.660156 L 28.019531 23 z M 39.998047 24.449219 C 40.381047 24.708219 40.993781 25 41.800781 25 L 42.300781 25 C 40.558781 25 39.049891 26.040875 38.337891 27.546875 C 37.528891 26.032875 35.932609 25 34.099609 25 L 35 25 L 38 25 L 39.998047 25 L 39.998047 24.449219 z M 24.142578 25 L 25.900391 25 L 26 25 L 26 27 L 26 30.574219 L 24.597656 26.367188 L 24.142578 25 z M 2.4003906 27 L 4.9003906 27 L 6.1992188 30.900391 L 7.5996094 27 L 10.400391 27 L 11.699219 30.900391 L 13 27 L 15.599609 27 L 12.599609 36 L 10.900391 36 L 9 30.5 L 7.0996094 36 L 5.4003906 36 L 2.4003906 27 z M 18.5 27 L 22.699219 27 L 25.699219 36 L 23.199219 36 L 22.5 34 L 18.699219 34 L 18 36 L 15.599609 36 L 18.5 27 z M 28 27 L 30.699219 27 L 34.099609 27 C 35.599609 27 36.900391 28.200781 36.900391 29.800781 C 36.900391 31.100781 36.000781 32.2 34.800781 32.5 C 34.800781 32.5 35.300781 32.999609 35.800781 33.599609 C 36.000781 33.799609 36.199609 34 36.599609 34 L 41.900391 34 C 42.200391 34 42.5 33.700781 42.5 33.300781 C 42.5 33.200781 42.400391 33.1 42.400391 33 C 42.400391 33 40.499219 30.8 40.199219 30.5 C 40.099219 30.3 39.900391 30.1 39.900391 29.5 C 39.900391 28.1 41.000781 27 42.300781 27 L 47 27 L 47 29 L 43.699219 29 C 43.399219 29 43.099609 29.400781 43.099609 29.800781 C 43.099609 29.900781 43.199219 29.999609 43.199219 30.099609 L 45.199219 32.599609 C 45.299219 32.799609 45.5 32.999609 45.5 33.599609 C 45.5 35.099609 44.399609 36 43.099609 36 L 34.800781 36 C 34.400781 36 34.1 35.799219 34 35.699219 C 33.221 34.998219 31.655 33.508766 31 32.884766 L 31 36 L 28 36 L 28 27 z M 20.599609 28.400391 L 19.400391 32 L 21.800781 32 L 20.599609 28.400391 z M 31 29 L 31 31 L 33.300781 31 C 33.900781 31 34.400391 30.6 34.400391 30 C 34.400391 29.4 33.900781 29 33.300781 29 L 31 29 z M 38.533203 31.642578 L 38.560547 31.697266 L 38.785156 31.914062 C 38.803156 31.932063 38.830234 31.962 38.865234 32 L 38.367188 32 C 38.427188 31.883 38.483203 31.763578 38.533203 31.642578 z"/>
</svg>
